<svg xmlns="http://www.w3.org/2000/svg" version="1.1" viewBox="-5.0 -10.0 110.0 135.0">
 <path d="m50 60.957c-7.7734-7.8125-16.727-13.855-22.457-22.281l9.2734-0.003906c1.8789 0 3.5391-1.2383 4.0742-3.0469l0.95312-3.2344 5.3359 14.887c0.44531 1.2461 1.4492 2.2109 2.7109 2.6133 2.2305 0.70703 4.6133-0.53125 5.3242-2.7578l3.7031-11.609 0.48047 0.84375c0.72266 1.4141 2.1797 2.3125 3.7812 2.3125h9.2695c-5.7266 8.4258-14.676 14.465-22.449 22.277zm33.965 25.309-28.035-7.5117c-0.55469-0.14844-1.1289 0.18359-1.2773 0.73438l-1.125 4.1914c-0.14844 0.55469 0.18359 1.125 0.73828 1.2773l28.035 7.5117c0.55469 0.14844 1.1289-0.18359 1.2773-0.73438l1.125-4.1914c0.14453-0.55469-0.1875-1.1289-0.73828-1.2773zm-38.617-6.7773c-0.14844-0.55469-0.72266-0.88281-1.2773-0.73438l-28.035 7.5117c-0.55469 0.14844-0.88281 0.72266-0.73828 1.2773l1.125 4.1914c0.14844 0.55469 0.72266 0.88281 1.2773 0.73438l28.035-7.5117c0.55469-0.14844 0.88281-0.72266 0.73828-1.2773zm-22.023-49.309h10.32l3.7344-12.668c1.1562-3.9219 6.6836-4.082 8.0664-0.23438l5.5 15.336 2.793-8.7617c0.30469-1.0664 1.0156-1.9727 1.9844-2.5234 2.0352-1.1562 4.625-0.44141 5.7852 1.5898l4.1406 7.2578h11.031c0.39453-1.207 0.72656-2.4648 0.98828-3.7812 3.1406-15.824-16.039-26.73-27.668-11.816-11.629-14.914-30.809-4.0078-27.664 11.82 0.26172 1.3164 0.59375 2.5742 0.98828 3.7812zm72.891-4.5039c0-1.9414-1.6133-3.5469-3.5547-3.5469-1.9453 0-3.5547 1.5977-3.5547 3.5469v19.926c0.62891 1.4453 0.79297 3.1055 0.35547 4.7383l-2.332 8.6953c-0.50781 1.9023-1.4492 3.6094-2.8477 5.0039-0.55469 0.55078-1.4453 0.54688-1.9961-0.003906-0.55078-0.55469-0.54688-1.4453 0.003906-1.9961 1.0508-1.0469 1.7227-2.3047 2.1055-3.7305l2.332-8.6953c0.625-2.3359-0.76562-4.7695-3.1172-5.4023-2.3359-0.625-4.7734 0.77734-5.4023 3.1172l-1.5938 5.9492c-0.79688 2.9688-2.5703 5.2812-5.2305 6.8164-2.6445 1.5273-5.3008 3.0391-7.9336 4.5781-2.0234 1.168-2.4492 3.7383-3.0078 7.0977-0.25391 1.5312-0.53125 3.207-0.98438 5.0039l23.359 6.2578c2.1445-5.3242 5.1406-8.2266 8.918-11.883 0.64062-0.62109 1.3125-1.2695 2.2578-2.2148 0.74609-0.74609 1.3047-1.5625 1.668-2.4414 0.36719-0.88281 0.55469-1.8555 0.55469-2.9141zm-75.402 10.168 16.008-0.003906c0.60938 0 1.1758-0.39844 1.3555-1.0156l3.4062-11.566 8.2695 23.059c0.14453 0.39844 0.46484 0.73047 0.90234 0.86719 0.74219 0.23438 1.5352-0.17578 1.7695-0.91797l5.6641-17.758 3.7188 6.5156c0.22656 0.48047 0.71484 0.8125 1.2812 0.8125h16.008c0.78125 0 1.418-0.63281 1.418-1.418 0-0.78125-0.63281-1.418-1.418-1.418l-15.195 0.011719-4.957-8.6836c-0.38281-0.67969-1.2461-0.91797-1.9258-0.53125-0.34375 0.19531-0.57422 0.51172-0.66797 0.86719l-5.3516 16.785-8.3242-23.215c-0.46094-1.2891-2.3008-1.2148-2.6797 0.078125l-4.332 14.699h-14.949c-0.78125 0-1.418 0.63281-1.418 1.418 0 0.78125 0.63281 1.4141 1.418 1.4141zm19.727 40.922c-0.45312-1.793-0.73047-3.4688-0.98437-5.0039-0.55859-3.3594-0.98438-5.9297-3.0078-7.0977-2.6328-1.5391-5.2891-3.0508-7.9336-4.5781-2.6641-1.5391-4.4375-3.8477-5.2305-6.8164l-1.5938-5.9492c-0.625-2.3359-3.0625-3.7422-5.4023-3.1172-2.3516 0.62891-3.7422 3.0625-3.1172 5.4023l2.332 8.6953c0.38281 1.4258 1.0547 2.6836 2.1055 3.7305 0.55469 0.55078 0.55469 1.4453 0.003907 1.9961-0.55078 0.55469-1.4453 0.55469-1.9961 0.003906-1.3984-1.3945-2.3359-3.1016-2.8477-5.0039l-2.332-8.6953c-0.4375-1.6328-0.27344-3.2891 0.35547-4.7383v-19.926c0-1.9492-1.6094-3.5469-3.5547-3.5469-1.9414 0-3.5547 1.6055-3.5547 3.5469v37.902c0 1.0586 0.19141 2.0312 0.55469 2.9141 0.36328 0.87891 0.92187 1.6953 1.668 2.4414 0.94531 0.94531 1.6133 1.5938 2.2578 2.2148 3.7773 3.6562 6.7734 6.5586 8.918 11.883z"/>
</svg>